# xmcd
# 
# Track frame offsets:
#     182
#     12822
#     23652
#     34577
#     44527
#     57062
#     67207
#     76547
#     87662
#     97942
#     108695
#     118817
#     130960
#     142962
#     152792
#     161217
#     168942
#     180355
#     190265
#     197867
#     206017
#     214835
#     223970
#     232860
#     243865
# 
# Disc length: 3405
# 
# Revision: 2
# Processed by: cddbd v1.5.2PL0 Copyright (c) Steve Scherf et al.
# Submitted via: fre:ac v1.0.27
# 
DISCID=5d0d4b19
DTITLE=Johnny Cash - Country Boy
DYEAR=1986
DGENRE=Country
TTITLE0=I Walk The Line
TTITLE1=Wide Open Road
TTITLE2=Cry! Cry! Cry!
TTITLE3=Hey Porter
TTITLE4=Folsom Prison Blues
TTITLE5=Get Rhythm
TTITLE6=Luther Played The Boogie
TTITLE7=Mean Eyed Cat
TTITLE8=There You Go
TTITLE9=Train Of Love
TTITLE10=Straight As In Love
TTITLE11=Give My Love To Rose
TTITLE12=Goodnight Irene
TTITLE13=Rock Island Line
TTITLE14=Country Boy
TTITLE15=If The Good Lord's Willing
TTITLE16=Big River
TTITLE17=Ballad Of A Teenage Queen
TTITLE18=Come In Stranger
TTITLE19=Guess Things Happen That Way
TTITLE20=Life Goes On
TTITLE21=Blue Train
TTITLE22=Katy Too
TTITLE23=The Ways Of A Woman In Love
TTITLE24=Thanks A Lot
EXTD=
EXTT0=
EXTT1=
EXTT2=
EXTT3=
EXTT4=
EXTT5=
EXTT6=
EXTT7=
EXTT8=
EXTT9=
EXTT10=
EXTT11=
EXTT12=
EXTT13=
EXTT14=
EXTT15=
EXTT16=
EXTT17=
EXTT18=
EXTT19=
EXTT20=
EXTT21=
EXTT22=
EXTT23=
EXTT24=
PLAYORDER=
